<svg width="21" height="21" viewBox="0 0 21 21" fill="none" xmlns="http://www.w3.org/2000/svg">
<path d="M8.33301 21C7.50445 20.9992 6.71006 20.6697 6.12418 20.0838C5.5383 19.498 5.2088 18.7036 5.20801 17.875C5.20801 17.7092 5.27386 17.5503 5.39107 17.433C5.50828 17.3158 5.66725 17.25 5.83301 17.25C5.99877 17.25 6.15774 17.3158 6.27495 17.433C6.39216 17.5503 6.45801 17.7092 6.45801 17.875C6.45801 18.3723 6.65556 18.8492 7.00719 19.2008C7.35882 19.5525 7.83573 19.75 8.33301 19.75C8.83029 19.75 9.3072 19.5525 9.65883 19.2008C10.0105 18.8492 10.208 18.3723 10.208 17.875C10.208 17.7092 10.2739 17.5503 10.3911 17.433C10.5083 17.3158 10.6672 17.25 10.833 17.25C10.9988 17.25 11.1577 17.3158 11.2749 17.433C11.3922 17.5503 11.458 17.7092 11.458 17.875C11.4572 18.7036 11.1277 19.498 10.5418 20.0838C9.95596 20.6697 9.16157 20.9992 8.33301 21Z" fill="#8186AF"/>
<path d="M15.2078 18.5H1.45778C1.15974 18.4997 0.868932 18.4082 0.624464 18.2377C0.379996 18.0673 0.1936 17.826 0.0903495 17.5464C-0.0129007 17.2669 -0.0280521 16.9624 0.0469336 16.6739C0.121919 16.3855 0.283445 16.1269 0.509782 15.933C0.529835 15.9157 0.551236 15.8999 0.573782 15.886C1.17869 15.3601 1.66366 14.7106 1.99593 13.9811C2.3282 13.2517 2.50002 12.4595 2.49978 11.658V9.33298C2.49507 8.02187 2.93473 6.74784 3.74705 5.71868C4.55938 4.68952 5.69643 3.96595 6.97278 3.66598C7.13417 3.62793 7.30406 3.65554 7.44509 3.74274C7.58611 3.82995 7.68672 3.9696 7.72478 4.13099C7.76284 4.29237 7.73523 4.46227 7.64803 4.60329C7.56082 4.74432 7.42117 4.84493 7.25978 4.88299C6.2576 5.11828 5.36482 5.68646 4.72729 6.49473C4.08976 7.30299 3.74516 8.30356 3.74978 9.33298V11.658C3.74983 12.6525 3.53339 13.6351 3.11549 14.5376C2.69759 15.44 2.08825 16.2407 1.32978 16.884L1.29578 16.911C1.26575 16.948 1.24949 16.9943 1.24978 17.042C1.25056 17.0969 1.27272 17.1494 1.31156 17.1882C1.3504 17.227 1.40286 17.2492 1.45778 17.25H15.2078C15.2627 17.2492 15.3152 17.227 15.354 17.1882C15.3928 17.1494 15.415 17.0969 15.4158 17.042C15.4163 16.9946 15.4 16.9485 15.3698 16.912C15.3578 16.903 15.3468 16.894 15.3358 16.884C14.5962 16.2561 13.9989 15.4778 13.5838 14.601C13.5164 14.4518 13.5102 14.2821 13.5666 14.1284C13.623 13.9747 13.7374 13.8493 13.8853 13.7791C14.0332 13.7089 14.2027 13.6995 14.3575 13.753C14.5122 13.8064 14.6398 13.9185 14.7128 14.065C15.0419 14.7615 15.5118 15.3822 16.0928 15.888C16.1143 15.9021 16.135 15.9175 16.1548 15.934C16.3817 16.1276 16.5437 16.3862 16.619 16.6749C16.6943 16.9635 16.6793 17.2683 16.576 17.5481C16.4726 17.8279 16.286 18.0693 16.0411 18.2397C15.7963 18.4101 15.5051 18.5013 15.2068 18.501L15.2078 18.5Z" fill="#8186AF"/>
<path d="M14.583 12.667C13.3469 12.667 12.1385 12.3004 11.1107 11.6137C10.0829 10.9269 9.28182 9.9508 8.80877 8.80877C8.33572 7.66673 8.21194 6.41006 8.4531 5.19768C8.69426 3.9853 9.28952 2.87166 10.1636 1.99758C11.0377 1.1235 12.1513 0.528245 13.3637 0.287087C14.5761 0.0459294 15.8327 0.1697 16.9748 0.642748C18.1168 1.1158 19.0929 1.91687 19.7797 2.94468C20.4665 3.97249 20.833 5.18086 20.833 6.417C20.8312 8.07403 20.1721 9.66266 19.0004 10.8344C17.8287 12.0061 16.24 12.6651 14.583 12.667ZM14.583 1.609C13.6321 1.609 12.7025 1.89098 11.9118 2.41929C11.1212 2.9476 10.5049 3.69851 10.141 4.57705C9.77709 5.4556 9.68187 6.42233 9.86739 7.35499C10.0529 8.28765 10.5108 9.14435 11.1832 9.81676C11.8557 10.4892 12.7124 10.9471 13.645 11.1326C14.5777 11.3181 15.5444 11.2229 16.4229 10.859C17.3015 10.4951 18.0524 9.87885 18.5807 9.08818C19.109 8.29751 19.391 7.36793 19.391 6.417C19.3897 5.14224 18.8827 3.92008 17.9813 3.01869C17.0799 2.1173 15.8578 1.61032 14.583 1.609Z" fill="#FA544D"/>
<path d="M14.5831 9.58797C13.956 9.58797 13.3429 9.402 12.8214 9.05356C12.2999 8.70513 11.8935 8.20989 11.6535 7.63046C11.4135 7.05104 11.3507 6.41346 11.473 5.79834C11.5954 5.18323 11.8974 4.61821 12.3409 4.17474C12.7844 3.73127 13.3494 3.42926 13.9645 3.3069C14.5796 3.18455 15.2172 3.24735 15.7966 3.48735C16.376 3.72736 16.8713 4.13379 17.2197 4.65526C17.5681 5.17673 17.7541 5.78981 17.7541 6.41697C17.753 7.25765 17.4186 8.06359 16.8242 8.65804C16.2297 9.25249 15.4238 9.58691 14.5831 9.58797Z" fill="#8186AF"/>
</svg>
