<svg width="20" height="18" viewBox="0 0 20 18" fill="none" xmlns="http://www.w3.org/2000/svg">
<path d="M0 0.783991V13.553C0 13.7601 0.0822837 13.9588 0.22875 14.1052C0.375216 14.2517 0.573866 14.334 0.781 14.334H9.369V16.595H4.079C3.92305 16.595 3.77349 16.6569 3.66322 16.7672C3.55295 16.8775 3.491 17.027 3.491 17.183C3.491 17.3389 3.55295 17.4885 3.66322 17.5988C3.77349 17.709 3.92305 17.771 4.079 17.771H15.921C15.9982 17.771 16.0747 17.7558 16.146 17.7262C16.2174 17.6967 16.2822 17.6534 16.3368 17.5988C16.3914 17.5442 16.4347 17.4793 16.4642 17.408C16.4938 17.3367 16.509 17.2602 16.509 17.183C16.509 17.027 16.4471 16.8775 16.3368 16.7672C16.2265 16.6569 16.0769 16.595 15.921 16.595H10.546V14.335H19.219C19.3216 14.335 19.4233 14.3148 19.5181 14.2754C19.6129 14.2361 19.6991 14.1785 19.7716 14.1059C19.8441 14.0333 19.9016 13.947 19.9408 13.8522C19.98 13.7573 20.0001 13.6556 20 13.553V0.783991C20 0.576857 19.9177 0.378207 19.7712 0.231741C19.6248 0.085275 19.4261 0.00299072 19.219 0.00299072H0.781C0.573866 0.00299072 0.375216 0.085275 0.22875 0.231741C0.0822837 0.378207 0 0.576857 0 0.783991ZM18.824 13.158H1.176V11.616H9.412V11.799C9.41279 11.9544 9.47509 12.1032 9.58528 12.2128C9.69546 12.3225 9.84457 12.384 10 12.384C10.0772 12.384 10.1537 12.3688 10.225 12.3392C10.2964 12.3097 10.3612 12.2664 10.4158 12.2118C10.4704 12.1572 10.5137 12.0923 10.5432 12.021C10.5728 11.9497 10.588 11.8732 10.588 11.796V11.613H18.823L18.824 13.158ZM1.176 10.44V1.17599H18.824V10.44H1.176Z" fill="#8186AF"/>
<path d="M5.22302 3.954H5.02301C4.46941 3.94551 3.92588 4.10245 3.46202 4.40473C2.99815 4.70701 2.63507 5.14087 2.41927 5.65075C2.20348 6.16063 2.14479 6.72332 2.25072 7.26676C2.35665 7.8102 2.62238 8.30965 3.01388 8.70115C3.40538 9.09265 3.90483 9.35837 4.44827 9.4643C4.9917 9.57023 5.55439 9.51155 6.06427 9.29575C6.57415 9.07996 7.00801 8.71688 7.31029 8.25301C7.61257 7.78915 7.76951 7.24561 7.76102 6.69201V6.512C7.76102 6.4152 7.72256 6.32236 7.65411 6.25391C7.58566 6.18546 7.49282 6.14701 7.39602 6.14701H5.91602C5.82399 6.14701 5.73573 6.11045 5.67065 6.04537C5.60558 5.9803 5.56902 5.89204 5.56902 5.80001V4.30001C5.56875 4.20833 5.53222 4.12047 5.46738 4.05564C5.40255 3.99081 5.3147 3.95427 5.22302 3.954ZM6.47501 7.32301C6.37641 7.56853 6.21846 7.78578 6.0153 7.95528C5.81215 8.12479 5.57012 8.24128 5.3109 8.2943C5.05168 8.34733 4.78336 8.33524 4.52996 8.25912C4.27656 8.183 4.04599 8.04522 3.85889 7.85813C3.6718 7.67104 3.53403 7.44047 3.45791 7.18706C3.38179 6.93366 3.3697 6.66534 3.42272 6.40612C3.47574 6.1469 3.59223 5.90487 3.76173 5.70171C3.93124 5.49855 4.14849 5.34061 4.39402 5.24201V7.32201L6.47501 7.32301Z" fill="#FA544D"/>
<path d="M6.86198 2.073C6.70604 2.073 6.55648 2.13494 6.44621 2.24522C6.33594 2.35549 6.27399 2.50505 6.27399 2.661V4.853C6.27399 5.00894 6.33594 5.1585 6.44621 5.26878C6.55648 5.37905 6.70604 5.44099 6.86198 5.44099H9.05399C9.20993 5.44099 9.35949 5.37905 9.46976 5.26878C9.58003 5.1585 9.64198 5.00894 9.64198 4.853C9.64172 4.11578 9.34875 3.40882 8.82745 2.88753C8.30616 2.36623 7.5992 2.07326 6.86198 2.073ZM7.44998 4.26499V3.365C7.6532 3.44612 7.83778 3.56775 7.99251 3.72247C8.14723 3.8772 8.26886 4.06178 8.34999 4.26499H7.44998Z" fill="#FA544D"/>
<path d="M11.595 4.30298H12.406C12.4545 4.30298 12.5011 4.32225 12.5354 4.35657C12.5697 4.39089 12.589 4.43744 12.589 4.48598V5.76997C12.589 5.81851 12.5697 5.86506 12.5354 5.89938C12.5011 5.9337 12.4545 5.95297 12.406 5.95297H11.595C11.5464 5.95297 11.4999 5.9337 11.4656 5.89938C11.4313 5.86506 11.412 5.81851 11.412 5.76997V4.48598C11.412 4.43744 11.4313 4.39089 11.4656 4.35657C11.4999 4.32225 11.5464 4.30298 11.595 4.30298Z" fill="#FA544D"/>
<path d="M11.595 2.48602H12.406C12.4545 2.48602 12.5011 2.5053 12.5354 2.53962C12.5697 2.57394 12.589 2.62049 12.589 2.66902V3.14602C12.589 3.19455 12.5697 3.2411 12.5354 3.27542C12.5011 3.30974 12.4545 3.32903 12.406 3.32903H11.595C11.5464 3.32903 11.4999 3.30974 11.4656 3.27542C11.4313 3.2411 11.412 3.19455 11.412 3.14602V2.66902C11.412 2.62049 11.4313 2.57394 11.4656 2.53962C11.4999 2.5053 11.5464 2.48602 11.595 2.48602Z" fill="#FA544D"/>
<path d="M13.948 4.30298H14.759C14.8076 4.30298 14.8541 4.32225 14.8884 4.35657C14.9227 4.39089 14.942 4.43744 14.942 4.48598V5.76997C14.942 5.81851 14.9227 5.86506 14.8884 5.89938C14.8541 5.9337 14.8076 5.95297 14.759 5.95297H13.948C13.8995 5.95297 13.853 5.9337 13.8186 5.89938C13.7843 5.86506 13.765 5.81851 13.765 5.76997V4.48598C13.765 4.43744 13.7843 4.39089 13.8186 4.35657C13.853 4.32225 13.8995 4.30298 13.948 4.30298Z" fill="#FA544D"/>
<path d="M13.948 2.48602H14.759C14.8076 2.48602 14.8541 2.5053 14.8884 2.53962C14.9227 2.57394 14.942 2.62049 14.942 2.66902V3.14602C14.942 3.19455 14.9227 3.2411 14.8884 3.27542C14.8541 3.30974 14.8076 3.32903 14.759 3.32903H13.948C13.8995 3.32903 13.853 3.30974 13.8186 3.27542C13.7843 3.2411 13.765 3.19455 13.765 3.14602V2.66902C13.765 2.62049 13.7843 2.57394 13.8186 2.53962C13.853 2.5053 13.8995 2.48602 13.948 2.48602Z" fill="#FA544D"/>
<path d="M16.3 4.30298H17.111C17.1595 4.30298 17.2061 4.32225 17.2404 4.35657C17.2747 4.39089 17.294 4.43744 17.294 4.48598V5.76997C17.294 5.81851 17.2747 5.86506 17.2404 5.89938C17.2061 5.9337 17.1595 5.95297 17.111 5.95297H16.3C16.2515 5.95297 16.2049 5.9337 16.1706 5.89938C16.1363 5.86506 16.117 5.81851 16.117 5.76997V4.48598C16.117 4.43744 16.1363 4.39089 16.1706 4.35657C16.2049 4.32225 16.2515 4.30298 16.3 4.30298Z" fill="#FA544D"/>
<path d="M16.3 2.48602H17.111C17.1595 2.48602 17.2061 2.5053 17.2404 2.53962C17.2747 2.57394 17.294 2.62049 17.294 2.66902V3.14602C17.294 3.19455 17.2747 3.2411 17.2404 3.27542C17.2061 3.30974 17.1595 3.32903 17.111 3.32903H16.3C16.2515 3.32903 16.2049 3.30974 16.1706 3.27542C16.1363 3.2411 16.117 3.19455 16.117 3.14602V2.66902C16.117 2.62049 16.1363 2.57394 16.1706 2.53962C16.2049 2.5053 16.2515 2.48602 16.3 2.48602Z" fill="#FA544D"/>
<path d="M16.414 7.00697L15.386 7.74497C15.3398 7.77756 15.2853 7.79645 15.2289 7.79945C15.1725 7.80246 15.1164 7.78947 15.067 7.76196L13.999 7.15398C13.9534 7.12765 13.9016 7.11379 13.849 7.11379C13.7963 7.11379 13.7446 7.12765 13.699 7.15398L12.199 8.05397C12.0655 8.13448 11.9694 8.26473 11.9319 8.41606C11.8944 8.5674 11.9185 8.72743 11.999 8.86098C12.0795 8.99449 12.2097 9.09056 12.3611 9.12807C12.5124 9.16557 12.6724 9.14144 12.806 9.06097L13.714 8.51398C13.7596 8.48765 13.8113 8.47379 13.864 8.47379C13.9166 8.47379 13.9684 8.48765 14.014 8.51398L15.138 9.15398C15.1873 9.18148 15.2435 9.19448 15.2999 9.19147C15.3564 9.18846 15.4108 9.16956 15.457 9.13696L17.098 7.95998C17.1608 7.91496 17.2141 7.85801 17.2549 7.79237C17.2957 7.72674 17.3231 7.6537 17.3356 7.57745C17.3482 7.50121 17.3456 7.42323 17.3279 7.34799C17.3103 7.27275 17.2781 7.20173 17.233 7.13898C17.1416 7.01318 17.0042 6.92865 16.8507 6.90392C16.6972 6.87918 16.5402 6.91624 16.414 7.00697Z" fill="#FA544D"/>
</svg>
