<svg width="18" height="18" viewBox="0 0 18 18" fill="none" xmlns="http://www.w3.org/2000/svg">
<path d="M8.85978 5.27197C8.14776 5.27197 7.45173 5.4831 6.85972 5.87868C6.2677 6.27425 5.80628 6.83649 5.5338 7.49431C5.26133 8.15212 5.19003 8.87596 5.32894 9.5743C5.46785 10.2726 5.81071 10.9141 6.31418 11.4176C6.81765 11.921 7.45911 12.2639 8.15745 12.4028C8.85578 12.5417 9.57962 12.4704 10.2374 12.1979C10.8952 11.9255 11.4575 11.464 11.8531 10.872C12.2486 10.28 12.4598 9.58399 12.4598 8.87198C12.4598 7.9172 12.0805 7.00152 11.4054 6.32639C10.7302 5.65125 9.81456 5.27197 8.85978 5.27197ZM8.85978 11.028C8.43297 11.028 8.01573 10.9014 7.66085 10.6643C7.30597 10.4272 7.02937 10.0901 6.86603 9.6958C6.7027 9.30148 6.65996 8.86759 6.74323 8.44897C6.8265 8.03036 7.03204 7.64584 7.33384 7.34404C7.63564 7.04224 8.02016 6.8367 8.43877 6.75343C8.85738 6.67017 9.29128 6.7129 9.6856 6.87624C10.0799 7.03957 10.417 7.31617 10.6541 7.67105C10.8912 8.02593 11.0178 8.44317 11.0178 8.86998C11.017 9.44207 10.7894 9.9905 10.3848 10.395C9.9803 10.7996 9.43187 11.0272 8.85978 11.028Z" fill="white"/>
<path d="M16.8764 6.71899L14.8334 6.38999L16.0534 4.76399C16.157 4.62603 16.2077 4.45544 16.1961 4.28328C16.1846 4.11112 16.1116 3.94884 15.9904 3.82599L13.9474 1.75299C13.8256 1.62875 13.6628 1.55305 13.4893 1.53998C13.3158 1.52692 13.1434 1.57739 13.0044 1.68199L11.3334 2.85599L11.0084 0.839985C10.9813 0.671201 10.8949 0.517595 10.7648 0.406722C10.6347 0.295849 10.4693 0.234963 10.2984 0.234985H7.4204C7.24733 0.23492 7.08005 0.297281 6.94926 0.41062C6.81847 0.523959 6.73295 0.68067 6.7084 0.851985L6.3714 2.89199L4.7094 1.67599C4.57107 1.57434 4.40091 1.52561 4.22975 1.53863C4.05858 1.55166 3.89775 1.62558 3.7764 1.74699L1.7404 3.77599C1.61741 3.89847 1.54287 4.06131 1.53056 4.23444C1.51825 4.40758 1.56898 4.57933 1.6734 4.71799L2.8654 6.38699L0.850399 6.67499C0.679084 6.69954 0.522372 6.78506 0.409033 6.91585C0.295694 7.04664 0.233334 7.21392 0.233399 7.38699V10.265C0.233156 10.438 0.295478 10.6053 0.408871 10.7359C0.522264 10.8666 0.679081 10.9519 0.850399 10.976L2.8954 11.306L1.6734 12.932C1.56885 13.0705 1.51795 13.2422 1.53008 13.4153C1.54221 13.5885 1.61656 13.7514 1.7394 13.874L3.7754 15.91C3.8979 16.033 4.06083 16.1075 4.23402 16.1196C4.40722 16.1318 4.57894 16.0807 4.7174 15.976L6.3854 14.784L6.6734 16.798C6.69795 16.9693 6.78347 17.126 6.91426 17.2394C7.04505 17.3527 7.21233 17.4151 7.3854 17.415H10.2634C10.4362 17.4151 10.6032 17.353 10.734 17.2401C10.8647 17.1272 10.9504 16.9709 10.9754 16.8L11.3054 14.755L12.9334 15.978C13.0719 16.0827 13.2436 16.1338 13.4168 16.1216C13.59 16.1095 13.7529 16.035 13.8754 15.912L15.9114 13.876C16.0342 13.7534 16.1086 13.5905 16.1207 13.4173C16.1329 13.2442 16.0819 13.0725 15.9774 12.934L14.7634 11.268L16.8574 11.023C17.0325 11.0026 17.194 10.9187 17.3113 10.787C17.4285 10.6554 17.4934 10.4853 17.4934 10.309V7.43098C17.4935 7.25792 17.4311 7.09064 17.3178 6.95985C17.2044 6.82906 17.0477 6.74354 16.8764 6.71899ZM16.0554 9.66799L14.5874 9.83899C14.3334 9.86941 14.0924 9.96828 13.8902 10.125C13.688 10.2818 13.5322 10.4906 13.4394 10.729C13.3368 10.9625 13.2978 11.219 13.3265 11.4724C13.3551 11.7259 13.4503 11.9672 13.6024 12.172L14.4504 13.298L13.2974 14.451L12.1664 13.6C11.9696 13.4516 11.7374 13.3573 11.4929 13.3262C11.2484 13.2952 11 13.3285 10.7724 13.423C10.5248 13.5111 10.3062 13.6657 10.1406 13.8697C9.97493 14.0738 9.86866 14.3195 9.8334 14.58L9.6334 15.98H8.0094L7.8094 14.592C7.77986 14.3373 7.68149 14.0955 7.52486 13.8925C7.36823 13.6896 7.15926 13.5331 6.9204 13.44C6.68676 13.3372 6.43006 13.2981 6.17642 13.3268C5.92278 13.3554 5.68125 13.4507 5.4764 13.603L4.3504 14.451L3.1984 13.299L4.0494 12.168C4.19748 11.971 4.29168 11.7389 4.32272 11.4945C4.35375 11.25 4.32056 11.0017 4.2264 10.774C4.13756 10.5271 3.98255 10.3094 3.77832 10.1447C3.57408 9.97995 3.3285 9.87454 3.0684 9.83999L1.6684 9.63999V8.01098L3.0574 7.81099C3.31118 7.78058 3.55193 7.68182 3.75395 7.52524C3.95596 7.36867 4.11166 7.16016 4.2044 6.92199C4.30723 6.68841 4.3464 6.43178 4.31795 6.17816C4.2895 5.92454 4.19443 5.68297 4.0424 5.47799L3.1994 4.35299L4.3554 3.20099L5.5184 4.05099C5.72441 4.19801 5.96462 4.28987 6.21617 4.31781C6.46772 4.34575 6.72223 4.30885 6.95549 4.21061C7.18874 4.11238 7.39297 3.95609 7.54874 3.7566C7.70451 3.55712 7.80664 3.3211 7.8454 3.07099L8.0454 1.67099H9.6854L9.9084 3.05799C9.93848 3.31237 10.0372 3.55379 10.194 3.75637C10.3508 3.95894 10.5597 4.11506 10.7984 4.20799C11.0316 4.31025 11.2876 4.34912 11.5407 4.32067C11.7937 4.29223 12.0347 4.19747 12.2394 4.04599L13.3634 3.20599L14.5334 4.39299L13.6794 5.52799C13.5324 5.734 13.4405 5.97421 13.4126 6.22576C13.3846 6.4773 13.4215 6.73182 13.5198 6.96507C13.618 7.19833 13.7743 7.40256 13.9738 7.55833C14.1733 7.7141 14.4093 7.81623 14.6594 7.85498L16.0594 8.05499V9.66899L16.0554 9.66799Z" fill="white"/>
</svg>
