<svg width="20" height="20" viewBox="0 0 20 20" fill="none" xmlns="http://www.w3.org/2000/svg">
<path d="M18.242 4.766H17.785L13.63 0.519995C13.3001 0.190853 12.8531 0.00600939 12.387 0.00600939C11.921 0.00600939 11.474 0.190853 11.144 0.519995L10.051 1.628L8.93802 0.514995C8.77482 0.351509 8.58099 0.221807 8.36762 0.133313C8.15425 0.0448182 7.92552 -0.000732422 7.69452 -0.000732422C7.46352 -0.000732422 7.23479 0.0448182 7.02142 0.133313C6.80804 0.221807 6.61421 0.351509 6.45102 0.514995L2.21802 4.766H18.242ZM14.364 2.945L16.146 4.766H12.594L14.364 2.945ZM11.97 1.345C12.0799 1.23648 12.2281 1.17562 12.3825 1.17562C12.5369 1.17562 12.6851 1.23648 12.795 1.345L13.544 2.11L10.963 4.766H8.62002L11.97 1.345ZM7.28102 1.345C7.39105 1.23526 7.54012 1.17364 7.69552 1.17364C7.85092 1.17364 7.99998 1.23526 8.11002 1.345L9.23102 2.465L6.98002 4.765H3.87202L7.28102 1.345Z" fill="#FA544D"/>
<path d="M18.242 4.76598H17.785C17.585 4.56098 9.444 4.76598 2.218 4.76598H1.758C1.29208 4.76651 0.845389 4.95176 0.515844 5.28111C0.186298 5.61047 0.000793874 6.05706 0 6.52298V18.242C0.000529345 18.7081 0.185917 19.1549 0.515491 19.4845C0.845065 19.8141 1.29191 19.9994 1.758 20H18.242C18.7081 19.9994 19.1549 19.8141 19.4845 19.4845C19.8141 19.1549 19.9995 18.7081 20 18.242V6.52298C19.9992 6.05706 19.8137 5.61047 19.4842 5.28111C19.1546 4.95176 18.7079 4.76651 18.242 4.76598ZM1.172 6.52298C1.17226 6.36764 1.23409 6.21874 1.34393 6.1089C1.45377 5.99907 1.60266 5.93724 1.758 5.93698H15.894C16.0493 5.93724 16.1982 5.99907 16.3081 6.1089C16.4179 6.21874 16.4797 6.36764 16.48 6.52298V9.45298H15.894C15.6972 9.45293 15.5009 9.47269 15.308 9.51198V7.69998C15.308 7.54456 15.2463 7.39551 15.1364 7.28561C15.0265 7.17572 14.8774 7.11398 14.722 7.11398H1.172V6.52298ZM1.172 8.28098H14.14V10.04C13.7761 10.3125 13.4808 10.666 13.2774 11.0725C13.0739 11.4791 12.968 11.9274 12.968 12.382C12.968 12.8366 13.0739 13.2849 13.2774 13.6914C13.4808 14.0979 13.7761 14.4515 14.14 14.724V16.483H1.172V8.28098ZM16.484 18.242C16.4837 18.3973 16.4219 18.5462 16.3121 18.656C16.2022 18.7659 16.0533 18.8277 15.898 18.828H1.758C1.60266 18.8277 1.45377 18.7659 1.34393 18.656C1.23409 18.5462 1.17226 18.3973 1.172 18.242V17.656H14.726C14.8814 17.656 15.0305 17.5942 15.1404 17.4843C15.2503 17.3744 15.312 17.2254 15.312 17.07V15.253C15.5049 15.2923 15.7012 15.312 15.898 15.312H16.484V18.242ZM18.828 18.242C18.8277 18.3973 18.7659 18.5462 18.6561 18.656C18.5462 18.7659 18.3973 18.8277 18.242 18.828H17.555C17.6215 18.6398 17.6553 18.4416 17.655 18.242V15.312H18.241C18.4406 15.3123 18.6388 15.2785 18.827 15.212L18.828 18.242ZM18.828 13.555C18.8277 13.7103 18.7659 13.8592 18.6561 13.969C18.5462 14.0789 18.3973 14.1407 18.242 14.141H15.894C15.4277 14.141 14.9806 13.9558 14.6509 13.6261C14.3212 13.2964 14.136 12.8492 14.136 12.383C14.136 11.9167 14.3212 11.4696 14.6509 11.1399C14.9806 10.8102 15.4277 10.625 15.894 10.625H18.238C18.3933 10.6252 18.5422 10.6871 18.6521 10.7969C18.7619 10.9067 18.8237 11.0556 18.824 11.211L18.828 13.555ZM18.828 9.55498C18.6398 9.48847 18.4416 9.45465 18.242 9.45498H17.656V6.52398C17.6563 6.32437 17.6225 6.12618 17.556 5.93798H18.243C18.3983 5.93824 18.5472 6.00007 18.6571 6.1099C18.7669 6.21974 18.8287 6.36864 18.829 6.52398L18.828 9.55498Z" fill="#8186AF"/>
</svg>
