<svg width="20" height="12" viewBox="0 0 20 12" fill="none" xmlns="http://www.w3.org/2000/svg">
<path d="M15.3 1.19904V2.02504C15.3 7.25604 15.3 3.41704 15.3 7.74203V8.56804H20V1.19904H15.3ZM18.832 7.39904H16.472V2.37304H18.832V7.39904Z" fill="#8186AF"/>
<path d="M15.3 2.02102H13.4L11.381 -0.000976562H7.50001L5.47901 2.02002H4.70001V7.73702H4.80001L7.90601 10.843C8.37109 11.308 9.00184 11.5693 9.65951 11.5693C10.3172 11.5693 10.9479 11.308 11.413 10.843L14.519 7.73702H15.3V2.02102ZM4.70001 3.19302H5.96601L7.98701 1.17202H10.9L12.919 3.19102L12.489 3.62103C12.245 3.86332 11.9156 4.00019 11.5718 4.00225C11.2279 4.00431 10.8969 3.87137 10.65 3.63202L9.69801 2.71803L5.84901 6.56702H4.70001V3.19302ZM14.029 6.56702L10.58 10.016C10.4585 10.1375 10.3143 10.2339 10.1556 10.2996C9.99692 10.3654 9.82681 10.3992 9.65501 10.3992C9.48322 10.3992 9.31311 10.3654 9.15439 10.2996C8.99568 10.2339 8.85147 10.1375 8.73001 10.016L6.38901 7.67502L9.70501 4.35902L9.82301 4.47302C10.2911 4.92597 10.9181 5.17736 11.5695 5.17325C12.2209 5.16914 12.8447 4.90984 13.307 4.45102L14.563 3.19502H15.3V6.56902L14.029 6.56702Z" fill="#FA544D"/>
<path d="M4.7 2.02103V1.19904H0V8.56904H4.7V2.02504V2.02103ZM3.528 7.39304H1.172V2.36703H3.532L3.528 7.39304Z" fill="#8186AF"/>
</svg>
