<svg width="20" height="20" viewBox="0 0 20 20" fill="none" xmlns="http://www.w3.org/2000/svg">
<path d="M16.878 0H7.826C7.6255 0 7.4332 0.0796498 7.29143 0.221427C7.14965 0.363205 7.07 0.555496 7.07 0.756V4.688H1.089C0.800179 4.688 0.523188 4.80273 0.318961 5.00696C0.114734 5.21119 0 5.48818 0 5.777L0 15.4C0 15.6888 0.114734 15.9658 0.318961 16.17C0.523188 16.3743 0.800179 16.489 1.089 16.489H6.843L6.062 18.833H5.312C5.23504 18.833 5.15884 18.8482 5.08775 18.8776C5.01665 18.9071 4.95205 18.9502 4.89764 19.0046C4.84322 19.059 4.80006 19.1237 4.77061 19.1947C4.74116 19.2658 4.726 19.342 4.726 19.419C4.72732 19.5737 4.78978 19.7216 4.89975 19.8305C5.00972 19.9393 5.15827 20.0003 5.313 20H12.344C12.4994 20 12.6485 19.9383 12.7584 19.8284C12.8683 19.7185 12.93 19.5694 12.93 19.414C12.93 19.2586 12.8683 19.1095 12.7584 18.9996C12.6485 18.8897 12.4994 18.828 12.344 18.828H11.594L10.813 16.484H16.567C16.855 16.484 17.1312 16.37 17.3353 16.1668C17.5394 15.9637 17.6547 15.688 17.656 15.4V12.9H18.242C18.4736 12.9 18.703 12.8542 18.9168 12.7653C19.1307 12.6764 19.3249 12.5461 19.4883 12.3819C19.6517 12.2177 19.781 12.0229 19.8688 11.8085C19.9566 11.5942 20.0012 11.3646 20 11.133V5.2C20 5.06447 19.9462 4.9345 19.8503 4.83867C19.7545 4.74284 19.6245 4.689 19.489 4.689H17.656V0.778C17.656 0.571662 17.574 0.373774 17.4281 0.227871C17.2822 0.0819676 17.0843 0 16.878 0ZM9 1.172H15.708C15.9143 1.172 16.1122 1.25397 16.2581 1.39987C16.404 1.54577 16.486 1.74366 16.486 1.95V11.133C16.4857 11.3326 16.5195 11.5308 16.586 11.719H8.828C8.67258 11.719 8.52353 11.6573 8.41364 11.5474C8.30374 11.4375 8.242 11.2884 8.242 11.133V1.933C8.24134 1.83313 8.26047 1.73412 8.29829 1.64169C8.33612 1.54926 8.39188 1.46524 8.46236 1.39448C8.53284 1.32372 8.61664 1.26763 8.70892 1.22944C8.8012 1.19126 8.90013 1.17173 9 1.172ZM10.361 18.828H7.3L8.081 16.484H9.581L10.361 18.828ZM15.4 15.313H2.261C2.11799 15.313 1.97638 15.2848 1.84426 15.2301C1.71213 15.1754 1.59208 15.0952 1.49096 14.994C1.38984 14.8929 1.30962 14.7729 1.2549 14.6407C1.20017 14.5086 1.172 14.367 1.172 14.224V6.948C1.172 6.65918 1.28673 6.38219 1.49096 6.17796C1.69519 5.97373 1.97218 5.859 2.261 5.859H7.07V11.132C7.07 11.5983 7.25522 12.0454 7.58491 12.3751C7.9146 12.7048 8.36175 12.89 8.828 12.89H16.484V14.223C16.4843 14.5111 16.3703 14.7876 16.1672 14.9919C15.964 15.1962 15.6881 15.3117 15.4 15.313ZM18.833 11.133C18.8328 11.2123 18.8166 11.2908 18.7852 11.3637C18.7539 11.4365 18.708 11.5023 18.6506 11.557C18.5931 11.6117 18.5251 11.6541 18.4508 11.6818C18.3764 11.7095 18.2972 11.7218 18.218 11.718C18.0666 11.7069 17.9251 11.6388 17.8219 11.5274C17.7187 11.4161 17.6616 11.2698 17.662 11.118V5.859H18.323C18.4585 5.859 18.5885 5.91284 18.6843 6.00867C18.7802 6.1045 18.834 6.23447 18.834 6.37L18.833 11.133Z" fill="#8186AF"/>
<path d="M15.314 2.34399H9.414V5.85999H15.314V2.34399ZM14.142 4.688H10.587V3.516H14.142V4.688Z" fill="#FA544D"/>
<path d="M9.414 7.03101H15.314V8.203H9.414V7.03101Z" fill="#FA544D"/>
<path d="M9.414 9.375H15.314V10.547H9.414V9.375Z" fill="#FA544D"/>
</svg>
